<?xml version="1.0" encoding="UTF-8"?>
<svg xmlns="http://www.w3.org/2000/svg" viewBox="0 0 1080 1080">
  <defs>
    <style>
      .cls-1 {
        fill: #fff;
      }
    </style>
  </defs>
  <rect width="1080" height="1080"/>
  <g id="Layer_1" data-name="Layer 1">
    <path class="cls-1" d="M301.23,529.49c-9.31.55-18.15,1.56-27.6.55-3.26-.35-6.23-.79-9.63.82l-.1,36.78c-6.72.34-13.44.62-20.55-.25l.35-86.44c.02-4.36-.99-8.28.64-10.95l65.46.73c.02,6.76.47,12.93-.14,19.01l-45.73-.77c-.55,7.92-.52,14.75-.02,22.32l37.13.18c1.22,5.95.47,11.33.21,18.03Z"/>
    <path class="cls-1" d="M485.52,543.61c4.2,4.31,7.34,8.85,10.08,14.06-14.98,16.11-49.36,16.06-62.36-.61-10.64-13.65-10.52-32.85-1.08-47.48,8.14-12.61,22.71-16.67,37.54-14.74,5.49.71,10.58,3.47,15.3,6.77,5.73,4,8.92,10.99,10.95,17.86,1.81,6.1.35,12.43,1.7,18.54l-53.47.26c.82,6.22,4.45,10.24,9.6,12.53,11.02,4.9,23.92,2.11,31.74-7.19ZM478.66,523.7c-1.04-8.6-6.16-11.57-11.96-13.04-9.75-2.04-19.26,3.3-21.74,13.57,11.79-.21,22.61.87,33.71-.52Z"/>
    <path class="cls-1" d="M683.26,568.88c-4.83,2.66-8.44,1.08-12.63.54-22.42-2.9-32.51-16.9-32.23-39.05.24-18.54,12.88-33.31,31.46-35.55,11.59-1.4,23.54.62,32.64,8.25,14.44,12.12,16.31,37.86,5.56,52.98-5.59,7.86-14.97,12.26-24.8,12.83ZM675.51,552.13c13.23.52,21.24-9.34,20.71-21.33s-9.23-19.59-21.12-18.58c-9.93.85-17.56,7.96-17.35,18.16.12,5.92-.27,11.08,4.07,15.68,3.03,3.21,7.76,5.84,13.69,6.07Z"/>
    <path class="cls-1" d="M539,512.54c-7.98,1.41-13.27,7.48-13.37,15.42l-.52,39.57c-6.02.71-12.06.18-18.89.25l-.2-71.06,18.4-.21,1.55,8.12c5.87-6.8,12.79-9.61,21.71-10.12,15.07-.86,29.38,9.22,29.58,25.31l.62,47.94-18.86-.08-.68-40.21c-.08-4.8-2.59-9.23-5.25-11.76-3.76-3.58-8.64-4.13-14.09-3.17Z"/>
    <path class="cls-1" d="M857.7,496.4c1.21.84.07,1.39-.97,2.17l-42.25,95.43-20.6-.19,12.31-27.96-29.62-65.12c-.36-.78-2.38-1.01-2.18-1.49.25-.59,1.29-1.56,1.61-2.71l19.29-.21,20.85,46.51c8.5-17.13,13.03-32.47,20.49-46.83,7.23,1.15,13.83.21,21.07.4Z"/>
    <path class="cls-1" d="M417.68,567.65l-18.85-.11c-.34-2.34.16-4.22-1.4-7.07-6.02,7.81-17.57,10.8-27.12,8.94-15.71-3.07-21.74-13.69-21.79-29.59l-.12-43.39,18.1.14c1.27,13.08,1.2,25.85.53,39.08-.28,5.48,1.55,10.83,5.6,13.51,4.29,2.84,9.97,3.9,15.14,1.72,6.94-2.93,10.71-10.79,10.73-18.31l.11-35.82,18.59-.12.48,71.03Z"/>
    <path class="cls-1" d="M638.92,563.47c-3.92,4.27-9.97,4.31-15.36,5.71-4.32,1.12-7.63,1.76-12.04.22-4.05-1.41-9.37-1.49-12.14-5.51-2.06-2.99-5.45-7.2-5.48-10.37l-.37-38.68c-1.07-2.33-5.88-1.82-8.43-2.25-1.67-21.07,3.62-11.71,6.66-22.79,1.42-5.18,3.33-10.4,5.26-15.73l16.64,1.78c-.79,6.71-.72,12.77-.05,20.07,6.84.61,12.73.68,20.06,0-.3,5.08-.87,10.48.07,17.23-6.23-.25-12.71-.79-20.17.5l-.19,30.46c-.01,2.25.97,5.23,3.1,6.03,5.3,1.97,10.46,0,14.7-4.52,1.32,6.59,4.14,12.1,7.74,17.86Z"/>
    <path class="cls-1" d="M744.46,534.56c-.83-5.24-1.65,31.42-.35,33.35l-20.07-.02.09-71.37c7.05.3,12.78.59,20.18-.25-.87,3.74-2.22,6.96-.24,11.28,5.59-9.36,15.63-14.32,26.31-11.04.5.15,3.04,17.94.29,19.9-6.12-4.37-13.78-3.11-19.15,1.06-5.02,3.9-8.22,9.81-7.06,17.09Z"/>
    <rect class="cls-1" x="316.21" y="469.54" width="20.02" height="98.74" transform="translate(-.91 .57) rotate(-.1)"/>
  </g>
</svg>