<?xml version="1.0" encoding="UTF-8"?>
<svg id="Layer_1" data-name="Layer 1" xmlns="http://www.w3.org/2000/svg" viewBox="0 0 1080 1080.07">
  <defs>
    <style>
      .cls-1 {
        fill: #4b8c49;
      }

      .cls-2 {
        fill: #0a5d72;
      }

      .cls-3 {
        fill: #f2f7f4;
      }

      .cls-4 {
        fill: #63863e;
      }

      .cls-5 {
        fill: #0e5a6d;
      }

      .cls-6 {
        fill: #225911;
      }

      .cls-7 {
        fill: #57a26c;
      }

      .cls-8 {
        fill: #2b88a4;
      }

      .cls-9 {
        fill: #949e11;
      }

      .cls-10 {
        fill: #439db7;
      }

      .cls-11 {
        fill: #227986;
      }

      .cls-12 {
        fill: #369dbf;
      }

      .cls-13 {
        fill: #63bbcd;
      }

      .cls-14 {
        fill: #f7f8f2;
      }

      .cls-15 {
        fill: #3e9bad;
      }

      .cls-16 {
        fill: #259d78;
      }

      .cls-17 {
        fill: #73a665;
      }

      .cls-18 {
        fill: #6e964c;
      }

      .cls-19 {
        fill: #115563;
      }

      .cls-20 {
        fill: #04363a;
      }

      .cls-21 {
        fill: #55b2be;
      }

      .cls-22 {
        fill: #2e8ea9;
      }

      .cls-23 {
        fill: #3392b3;
      }

      .cls-24 {
        fill: #82c293;
      }

      .cls-25 {
        fill: #31641b;
      }

      .cls-26 {
        fill: #f1e273;
      }

      .cls-27 {
        fill: #2d899b;
      }

      .cls-28 {
        fill: #8abc59;
      }

      .cls-29 {
        fill: #033842;
      }

      .cls-30 {
        fill: #8ca52f;
      }

      .cls-31 {
        fill: #f8da03;
      }

      .cls-32 {
        fill: #023942;
      }

      .cls-33 {
        fill: #408836;
      }

      .cls-34 {
        fill: #407022;
      }

      .cls-35 {
        fill: #becd61;
      }

      .cls-36 {
        fill: #033841;
      }

      .cls-37 {
        fill: #cede8b;
      }

      .cls-38 {
        fill: #106e8e;
      }

      .cls-39 {
        fill: #78b365;
      }

      .cls-40 {
        fill: #a8cc73;
      }

      .cls-41 {
        fill: #f6faf4;
      }

      .cls-42 {
        fill: #70a452;
      }

      .cls-43 {
        fill: #b8c943;
      }

      .cls-44 {
        fill: #033942;
      }

      .cls-45 {
        fill: #409ebe;
      }

      .cls-46 {
        fill: #0b5c79;
      }

      .cls-47 {
        fill: #b7be2b;
      }

      .cls-48 {
        fill: #759826;
      }

      .cls-49 {
        fill: #397f4b;
      }

      .cls-50 {
        fill: #043a42;
      }

      .cls-51 {
        fill: #227e90;
      }

      .cls-52 {
        fill: #03495f;
      }

      .cls-53 {
        fill: #043841;
      }

      .cls-54 {
        fill: #f7f4f2;
      }

      .cls-55 {
        fill: #389bbf;
      }

      .cls-56 {
        fill: #0e667f;
      }

      .cls-57 {
        fill: #f2e978;
      }
    </style>
  </defs>
  <path class="cls-3" d="M653.31,1062.91c-.85.1-.85-.54-.84-.93,0-.28.09-.81.56-.8s.7.3.72.52c.04.4.23,1.12-.45,1.2Z"/>
  <g>
    <rect class="cls-54" width="1080" height="1080.07"/>
    <path class="cls-20" d="M398.11,514.28c.84,6.17.43,11.77.25,18l-37.06.12-.24,37.93c-6.61.76-13.09.37-19.93.15l.2-97.14h65.47c.59,6.02.28,11.56.18,18.4l-45.99.2-.13,22.07,37.27.28Z"/>
    <path class="cls-36" d="M582.93,546.8c4.29,4.48,7.44,8.51,9.58,13.69-15.17,16.18-50.49,16.59-63.55-3.21-10.35-15.7-8.25-37.72,5.92-50.85,14.03-13,37.87-12.35,50.79,1.52,8.41,9.03,9.26,21.73,8.13,32.86l-52.19.12c.14,4.74,2.78,9.11,7.12,11.54,11.28,6.32,25.17,4.32,34.21-5.66Z"/>
    <path class="cls-29" d="M779.09,572.03c-11.8.66-23.35-.56-32.04-8.37-8.23-7.4-11.31-18.43-11.41-29.31-.19-22.29,17.23-37.56,38.76-37.24s37.55,16.08,37.84,38.23c.26,19.69-12.37,35.53-33.15,36.69Z"/>
    <path class="cls-46" d="M224.54,482.74c4.95,1.16,6.37,3.18,4.24,6.07,5.36,4.31,9.93,9.62,13.71,15.93,2.71.65,6.59,7.55,3.04,9.42-1.5,2.61-3.39,1.31-5.69-3.92-.87-1.93-1.78-1.33-2.73,1.81.89.4.85.78-.08,1.15-3.27,1.51-3.7,2.69-2.99,6.11-2.1.99-3.22,2.84-3.34,5.58,2.21.98.01,5.06-2.3,4.2-1.83.03-3.1,1.12-3.82,3.24-5.9,3.02-6.26.28-1.09-8.23-.12-2,.44-4.05,1.69-6.14-2.56-1.7-3.73-3.35-3.49-4.97-1.06-.69-2.27-.6-3.61.27l-.13,2.63c-3.08,3.56-6.44,6.16-10.09,7.81.15,3.58-1.7,5.72-4.67,7.38-.43,1.76.31,3.2,2.23,4.31,2.96-2.62,6.11-5.05,9.46-7.31,2.19-4.01,3.29-6.01,3.29-6.01,9.53-5.68,4.63,4.88,1.48,9.34.18,3.48-6.44,8.85-9.85,10.24-3.16,1.29-12.17.76-12.76-3.16-2.96.92-6.32.49-10.06-1.31-3.75-2.07-5.38-2.06-4.9.03,2.2,2.45.21,2.96-2.69,2.86-5.39-2.98-5.32-1.22.21,5.27l-.62,2.6c-.84,0-2.11-.14-2.93.07-1.42-.19-2.85-.58-3.94-1.58-5.33-4.88-14.04-16.48-16.1-23.47,2.08-.2-.07-11.98.03-11.39.56,3.25,1.53,9.56.96,12.41-.67.07-1.22.19-1.34.48-1.08,2.61,7.45,19.71,12.12,21.03.26,1.59-1.03,1.82-2.45,1.37-16.84-3.21-31.26-16.11-36.38-32.92-.92-3.01.12-5.73,2.58-7.3,24.54-15.59,44.81-11.16,57.95-16.64l6.27-.42,1.29-.54c5.91-2.23,11.79-4.54,17.66-6.95l5.51.29c.44-3.1,3.79-2.65,4.32.32Z"/>
    <path class="cls-29" d="M622.77,530.55l-.37,39.73c-6.1.86-12.08.15-18.92.36l-.09-70.81c6.02-.8,11.86-.35,18.04-.36l1.14,9c6-6.98,13.03-10.72,22.28-11.14,15.79-.72,29.55,10.27,29.72,26.6l.5,46.56-18.77.06-.58-40.71c-.07-4.58-2.72-9.21-5.22-11.41-4.06-3.58-8.95-3.94-13.96-3.2-7.76,1.15-13.68,6.76-13.76,15.32Z"/>
    <path class="cls-32" d="M954.54,499.64l-42.78,96.5c-6.68,1.2-13.17.62-20.49.39l12.25-27.87-30.95-68.94c6.71-1.06,12.99-.27,20.17-.35l20.65,47.09,20.03-46.9,21.12.08Z"/>
    <path class="cls-29" d="M514.35,499.56l.22,70.73c-6.6.32-12.23.42-18.26-.11-.78-2.87.1-4.95-1.06-7.67-8.78,12.96-33.1,12.41-42.26,2.37-5.16-5.65-7.08-13.4-7.1-21.13l-.1-44.29h17.98s.16,39.01.16,39.01c.02,4.44,1.09,9.11,4.29,12.3,4.81,4.79,12.25,5.07,18.18,2.46,5.72-2.52,9.16-8.68,9.22-15.61l.31-37.77c5.73-.73,10.96-.17,18.44-.28Z"/>
    <path class="cls-44" d="M728.01,550.16l7.91,16.94c-9.03,4.67-18.71,6.13-28.5,4.73s-16.02-8.91-16.09-18.72l-.25-37.47c-3.3-.42-5.93.27-9.11-.56-.41-19.95,4-11.35,7.53-23.78,1.36-4.78,3.18-9.22,4.91-14.18,5.51-.03,10.47.92,15.83,2.33l.16,19.42,19.91.5c.41,5.44.37,10.49-.02,16.01l-19.9.14.19,32c.02,3.67,1.95,5.95,5.73,6.18,4.02.24,7.54-1.08,11.69-3.56Z"/>
    <rect class="cls-50" x="413.67" y="472.36" width="19.25" height="98.18"/>
    <path class="cls-53" d="M840.72,570.09c-6.21,1.13-12.5.64-19.12.16l.05-70.61h18.87c.27,4.02-.84,7.41.62,11.74,5.37-10.25,16.01-15.45,26.97-11.98l.12,18.46c-6.69-1.45-12.62-2.27-18.51,1.17-13.52,7.91-7.58,34.3-9.01,51.05Z"/>
    <path class="cls-31" d="M306.93,430.11l6.17,4.09c3.69,1.04,4.6,8.25,1.92,10.56-2.51,4.9-4.71,10.18-8.06,15.04-1.39,2.02-10.96,12.47-14.2,12.54-5.26,4.6-7.03,3.41-9.7-2.6-10.12-9.97-21.72-24.08-21.31-39,.14-4.96,1.08-5.92,6.46-5.13,3.45.5.9.98,1.1.56.18-.39.7-.62,1.31-.8,1.5-2.7,5.82-1.23,8.78-1.03,9.85.69,19.07,1.92,27.52,5.77Z"/>
    <path class="cls-49" d="M247.63,485.82c3.19.31,3.37.44,2.09,3.18.27,1.95.34,4.13.96,6.05,1.26,2.43,1.3,3.95.12,4.55-1.12.77-1.61,2.3-1.48,4.57-1.36,2.27-3.04,1.73-5.06-1.62-2.04.38-2.36-1.02-.95-4.2-1.83.89-3.24.77-4.24-.36-3.49-7.07-8.33-12.16-14.52-15.26l-4.32-.32c-2.8.26-5.49-.06-8.07-.97-.55-2.06-3.89-3.13-5.63-2.01-.62,1.84-4.34,1.61-5.31-.05-2.41-1.75-5.62-1.72-9.62.08l-1.94-2c.54-3.19,0-6.65,2.08-9.41,2.16-1.42,2.49-2.46.98-3.12.48-.48.19-1.61.55-2.21,3.25-.61,6.61-.74,10.09-.37-.42-1.6-1.95-2.41-4.58-2.43-3.32.88-3.83-.69-1.54-4.73,1.65-2.25,2.76-4.61,5.04-6.34l2.07-1.76c.68-.25,12.28,3.99,13.68,4.61,5.5,2.41,10.74,6.78,15.17,10.81,1.59,1.45,12.91,12.67,13.27,13.54.74,1.8.3,2.75-1.34,3.78,2.39,2.05,3.23,4.04,2.49,5.97Z"/>
    <path class="cls-38" d="M237.03,513.2c-.16,1.8,0,3.53.5,5.18.9,11.27-.99,23.73-13.77,26.68-3.79,3.99-10.88,7.38-15.48,3.95-5.84,1.73-13.35,3.78-18.27-.16-.81.64-.75,1.33.21,2.08l-2.56.25c-.05-.75.24-3.13-1.12-3.15l-7.55-.09c-3.46-4.32-6.84-8.74-8.19-14.82,1.37,1.39,10.6,7.22,11.3,4.09l.39-1.37c6.03,2.6,10.89,3.48,14.58,2.65l8.12,1.74c9.1,1.96,23.87-23.77,14.63-17.03-.84,6.87-10.12,11.56-14.37,12.18-.55-1.6-1.3-3.04-2.23-4.31,4.66-11.72,1.93-4.44,4.67-7.38,3.14-1.54,11.7-6.82,10.22-10.44.78-.53,1.3-1.94,2.66-1.79-.85-.09,7.07,4.39,6.44,6.72-1.41,5.2-4.97,9.01-6.65,13.88,4.58-.79,3.56-5.27,6.88-7.53,1.17,1.47-.64,3.79.98,4.55,1.1,4.46,4.47-4.87,4.78-7.57.19,1.76-.43,4.46-2.48,3.37l-.62-3.38c2.84-2.3,3.92-6.45,1.91-9.61l-3.37,4.18c-1.28-2.94.41-6.07,2.88-7.5,2.68,1.45,3.24,4.01,5.53,4.63Z"/>
    <path class="cls-15" d="M253.47,511.81c4.34,2.44,7.08,4.1,6.94,9.31,4.02.51,2.61,9.47,1.84,12.95-.73,3.3-2.26,9.34-4.34,11.82l-2.8.81c-1.63-.19-3.62-.01-4.87,1.26-3.12,3.18-.17,9.42-3.8,13.8-1.08.2-1.81-.12-1.57-.95.66-2.32,2.14-.51-.56,2.05-2.71,2.56-11.46,9.88-12.93,4.79l-9.34,3.48c-4.66.65-7.98-1.33-2.91-2.87,1.01-1.44,2.76-2.59,5.25-3.46l8.65-6.67-.41-1.84-1.37-.63c2.16-2.95,3.82-5.86,4.99-8.72-1.93-1.91,2.35-6.62,4.93-6.36,2.62-7.85,3.52-15.82,2.71-23.91l1.64-2.53c-.76-3.21-1.27-6.39-3.04-9.42-3.34-2.52.76-5.84,1.89-2.07,1.78.96,3.22,2.13,4.32,3.51,2.73-1.62,4.32.26,4.76,5.63Z"/>
    <path class="cls-15" d="M232.91,551.04c-3.23,10.87-16.64,14.27-27.12,12.62l-1.27,1.23c-1.99,1.14-.41,1.71,4.76,1.69l.31,1.49,7.7.71c.93.3-.2,2.09-.83,3.09-2.43,3.84-22.05-1.89-26.35-3.28l-2.13,1.34c2.85,1.45,2.46,5.47-.49,6.54-1.94-.09-.96-19.39-.1-22.31l2.82,1.55c7.49.61,14.64.21,21.45-1.19-4.08.58-22.27,1.49-22.79-3.56-.09-.89.44-1.6,1.13-2.12,1.75-.98,4,1.14,5.8.85,6.25-.99,11.85-2.59,17.62-4.53-.15,1.95-2.36,2.02-2.08,4.26,3.94-1.37,8.03-2.62,10.33-5.28,1.66-1.92,3.27-1.13,4.82-1.97,7.93-4.3,10.94-14.65,9.02-23.22-.34-1.51-1.68-2.34-.8-3.49.61-.8,1.53-1.47,2.32-2.26l.08-1.15c.97-1.63,1.44-1.95,2.9-1.16,4.34,2.34,1.7,16.03.48,20.29.89,6.45-1.71,12.4-7.8,17.87l.21,1.99Z"/>
    <path class="cls-27" d="M236.03,571.01c1.84.52,2.21,1.51,1.54,3.2,2.08-1.61,3.63-1.53,4.64.26-1.46,5.05-3.69,9.89-7.17,13.8-1.94-.3-3.7.79-5.27,3.27-4.81,4.85-35.82,4.08-38.71-.06-1.76-2.52.04-4.9-.44-1.76-.03.23-.3.43-.63.62-1.83,2.04-1.48-7.07-1.51-7.69.34-.81.14-1.5-.53-2.09-.2-1.35-.43-2.7-.46-4.07-.04-2.2.27-4.36.49-6.54l2.05-1.46c4.72,1.82,9.59,2.97,14.59,3.46,1.29,2.57,3.8,3.46,7.53,2.67,4.52-1.58,7.9-1.37,10.15.61l10.55-5.26c1.39-.09,2.45.26,3.18,1.05Z"/>
    <path class="cls-47" d="M270.63,425.37c.93,6.48-3.31-2.29-6.65,1.56-3.59,4.14,1.58,5.77.47,12.14-.91,5.22,3.46,6.47,5.02,9.52s2.07,5.8,4.54,8.42l10.31,10.96c1.76,1.87,1.93,5.02,4.67,6.19,1.19-.81,2.41-1.79,3.77-1.82-.65,3.01-18.14,11.59-20.84,10.54l-.98-.26c-3.6-7.91-8.23-15.26-13.9-22.04l.57-1.39c-4.17-5.56,4.5-8.67,7.04-2.77-2.43-5.83-4.38-11.82-5.85-17.98-.48-3.54-1.21-11.02,1.59-12.91,3.34-.28,6.89-1.71,10.23-.15Z"/>
    <path class="cls-43" d="M226.66,431.95l1.11.92c15.51,10.03,34.02,30.27,43.17,49.76l.98.26c-1.82,1.33-4.06,1.78-6.28,1.81-2.24-1.37-4.52-4.09-6.84-8.15-.93,1.64-1.95,1.75-3.64.74-1.63,2.74-5.73-1.32-3.37-3,.41-1.11,1-1.18,1.79-.23l-9.72-9.95-.47-2.48c-1,.03-1.73-.6-2.2-1.89l-1.2.5c-4.85-3.93-10.09-7.37-15.72-10.32-4.96-.95-9.82-2.62-14.58-5.02l-.84-2.4c.96-1.85,2.31-3.54,4.36-4.17,3.35,1.68,3.68,1.56.99-.35,3.29-3.28,8.07-4.95,12.47-6.04Z"/>
    <path class="cls-28" d="M260.4,425.53c.88,4.41-.34,9.83.76,13.81l2.07,7.56c1.14,4.17,5.01,7.73,2.92,12.1-.4.83-2.14.15-2.8-.2-.7-.37-.61-1.76-1.37-2.88-.83-1.21-2.7-.82-3.48.26-.5.7-.9,1.89-.88,3.01l-1.38.43c-7.11-7.97-14.36-15.81-21.73-23.53-2.58-1.39-3.86-3.11-3.83-5.14,1.49-1.54,3.41-1.32,5.28-1.88l2.53.58c1.52,1.96,10.29,9.89,11.61,9.26.66-.31-7.34-7.91-8.38-8.6l.54-2.4c5.48-3.03,12.01-1.87,18.14-2.38Z"/>
    <path class="cls-24" d="M268.87,506.19c4.59,9.23,3.68,29.48-1.47,38.35-.68,1.18-1.63,1.8-2.97,2.28-3.12-.08-6.22.25-9.32-.11,3.57-6.19,5.94-12.6,5.53-20.35-.02-.42.94-1.6.89-2.04-.06-.55-.29-1.49-1.47-1.1-.64.21-.86,1.12-1.7,1.57.03-3.74.08-6.83-1.91-9.57-1.54,5.72,1.72,12.39-2.74,14.16-.05-5.76.85-11.72-.23-17.56-1.18-3.32-2.48-6.65-3.88-10l1.21-2.21c-.59-1.3.32-3.19-.12-4.55.84.55,1.25,2.48,2.05,3.48,6.02,1.32,11.56,3.89,16.15,7.66Z"/>
    <path class="cls-56" d="M246.44,561.77c-.29.8-.87,2.31-.98,3.13-1.68,3.16-5.87,8.63-9.43,6.11-11.96,4.31-12.33,7.84-22.76,8.87-5.72.57-11.38,2.6-16.63-.09,8.9-1.82,17.18.14,24.66-5.04-6.28,1.93-12.97,3.34-20.16.29l4.36-1.65c-6.21.69-11.64-2-17.51-3.46.15-1.43-.28-2.85.31-4.31,4.7,2.49,25.24,8.31,27.86,3.66-2.9.13-4.7-.71-6.57-1.21,1.83-2.16,7.68-1.87,9.53.19-5.5,4.95,15.56-4.38,16.68-4.66-.01,2.11-2.08,1.69-2.57,5.18l13.12-10.06c-.24.87-.05,1.94.1,3.04Z"/>
    <path class="cls-39" d="M223.5,450.68c3.54-.38,7.33,1.16,6.76,5.06-.07.95,1,.68,3.23-.82,2.54,2.54,5.11,4.14,7.7,4.8.31-.31.8-.49,1.13-.9.52-.65.93-.31,1.05.14.23.85-.49,2.1.02,2.65,1.32,2.38,1.06,3.41-.77,3.11,2.79,4.89,6.48,9.46,11.09,13.71,2.8,3.78,5.6,7.89-.59,6.76-1.96,1.74-3.79,1.95-5.49.63-2.38-1.91-3.84-4.61-6.46-7.41,1.41-1.84,2.51.32,4.51-.44-7.33-5.25-10.01-10.79-18.45-18.21-3.84-3.38-20.01-11.89-24.96-10.88,1.32-1,1.45-3.59,3.35-4.27,6.29,1.29,12.25,3.32,17.87,6.08Z"/>
    <path class="cls-11" d="M229.75,594.21c-3.11,3.49-5.88,7.23-9.86,9.86-6.68,1.3-13.4,2.52-20.16,3.66-2.56-1.8-3.75-2.06-3.56-.78-2.85-3.68-4.05-8.13-5.57-12.66l2.01-1.4c11.32,2.93,24.13,3.13,35.37-.35l1.77,1.66Z"/>
    <path class="cls-8" d="M176.07,548.02c-3.78.98-7.26-.48-10.72-1.14.37.15,1.3.02,1.17-.68-8.29-2.18-14.01-21.14-13.88-28.95,2.11,1.42,1.42,3.87,3.93,5.38,1.02-2.47-.99-4.55-1.61-7.22-1.33-5.7-.27-12.58,5.05-16.1-2.49,8.4-3.04,15.46-1.9,23.32.92,6.32,5.32,9.42,8.78,13.79l9.18,11.58Z"/>
    <path class="cls-42" d="M191.73,468.06c.59-.78.19-2.31.98-3.12l14.75-.27c.86-.02,2.05-1.58,2.74-1.28.58.25,1.13,1.98,1.75,2,2.88.1,4.88-.56,6.76,1.75,3.97,4.86,11.19,5.05,14.45,10.99-6.21-1.67-9.85-6.73-16.27-6.86,3.68,2.57,7.64,4.16,10.38,7.6-3.37.51-5.92-3.55-8.75-3.53-3.04.02-4.98,1.43-8.15-.77-3.99-2.77-9.46-2.05-14.42-2.79,5.26-6.07,7.25.5,15.87-2.37-6.97-3.34-15.42-.02-20.1-1.35Z"/>
    <path class="cls-5" d="M187.4,554.17c.28-.95.04-2.03.27-2.99,1.04-.72.53-3.69,2.35-2.33-1.91,5.49,24.14,4.51,27.25,2.16.83-.1,2.15,1.98,2.97,1.8,4.18-.89,5.74-5,9.69-6.97-1.85,4.78-6.38,7.26-10.46,9.82-1.4.87-3.73-.77-5.14-.04-10.09,5.29-16.09.14-25.93,2.62-.68-1.29-.72-2.71-.99-4.07Z"/>
    <path class="cls-17" d="M201.2,479.4c-.31,1.8,6.91,1.77,5.31.05-1.57-3.26,13.59,2.22,13.7,2.97-7.59,2.6-15.23,5.77-23.17,6.65-1.09,1.19-2.92,1.61-5.49,1.29.46-.45-.23-.56-2.07-.33-.92-4.15-.54-8.46.16-12.56,5.14-.21,10.14-.99,15.98-.03.01,1.91-.91,1.87-2.34,1.06-.74-.35-2.63-.21-2.09.89Z"/>
    <path class="cls-52" d="M235.04,588.27l-5.28,5.94c-9.56,2.3-30.51,4.54-39.15.08-.43-1.28-.63-2.61-.61-3.96s-.69-2.6-.15-4.48c2.03-.05.54,3.3,1.39,3.75,3.9,2.08,8.65,2.02,13.09,2.93,8.26,1.7,16.94,1.37,24.48-2.57,1.88-.98,2.63-4.01,5.81-3.48.59.1.38,1.05.42,1.78Z"/>
    <path class="cls-48" d="M230.67,430.96c3.55,1.68,6.77,4.44,8.89,8.3,2.52,4.58,8.03,7.47,10.86,12.05,2.11,3.42,4.87,5.28,7.19,7.89s14.32,20.21,13.32,23.43c-3.69-7.85-23.42-32.65-29.36-37.13l-15.81-11.91c-.15-.41.65-1.04.88-1.64l4.01-.99Z"/>
    <path class="cls-37" d="M274.55,510.84c.52,5.24.75,10.82-.64,16.02,3.08-.03,2.97,3.4.02,4.07.04,5.85-1.38,10.77-4.26,14.77-1.73.44-3.42,1.15-5.25,1.1,1.64-5.74,4.98-11.43,5.03-17.98l.08-10.43c.03-4.34-1.5-8.29-.67-12.22,1.9,1.55,4.16,2.74,5.68,4.66Z"/>
    <path class="cls-40" d="M282.18,520.55c.77,5.76.02,12.06-2.23,18.9-1.66,1.05-2.23,2.1-1.71,3.14-1.11,2-3.33,2.21-5.41,2.25l-1.25-.55c1.07-4.37,1.85-8.81,2.35-13.34l-.02-4.07c.84-3.94,1.2-7.95,1.07-12.02l1.44-.43c2.77.98,4.59,3.48,5.76,6.13Z"/>
    <path class="cls-19" d="M219.89,604.07c-7.48,4.95-16.57,12.11-23.71,2.88-.11-.55-.28-1.2-.03-2.1.36-1.31,1.71,1.04,2.46.93,7.21-1.05,14.44-3.75,21.28-1.7Z"/>
    <path class="cls-1" d="M242.26,427.91c1.16,1.36,15.54,12.78,8.39,12.33,1.16,2.24,3.08,3.78,3.03,6.47-4.26-6.47-16.87-13.04-17.72-17.64,1.85-.56,4.61-.4,6.3-1.16Z"/>
    <path class="cls-30" d="M265.64,484.69c-1.06.01-2.13.17-3.19.12-4.49,1.97-8.83-3.71-7.28-7.54.83-.7,2.08-1.57,1.81-2.42-.38-1.2-.89-2.21-1.62-3.16l-10.07-13.1c.26-.83,1.1-1.07,1.42-.57l.92,1.44c.43.67.95,1.87,1.47,1.89.35.01.87-1.23,1.56-2.45,1.02,4.68,3.6,8.12,6.72,11.79-2.5-2.94,13.43,18.14,8.28,14Z"/>
    <path class="cls-35" d="M251.79,474.28c-.22,2.09,2.35,2.07,3.37,3,1.97,2.9,3.52,7.01,7.28,7.54-2.45,3.53-12.87-1.28-12.73,4.18-1.03-.51-1.33-2.57-2.09-3.18-.17-1.07.95-.82,1.44-.76s1.04.57,2.09.6-.28-1.97-.11-2.57c1.66-.76,2.4,1.65,4.59,1.68-2.24-3.98-5.11-7.54-8.41-11.47-2-2.37-7.08-5.03-4.6-8.58,1.77-1.11,9.68,7.04,10.1,8.46.08.25-.35.65-.93,1.1Z"/>
    <path class="cls-7" d="M282.18,520.55c1.28,2.88,2.81,6.11,3.5,9.48,1.3,6.38-2.38,10.22-7.43,12.56-.58-.09-1.47.13-1.58-.59s.33-1.23.74-2.04c4.96-9.92,1.22-20.18,4.78-19.4Z"/>
    <path class="cls-21" d="M245.46,564.9c.78,3.27-2.41,6.7-3.25,9.57-5.82,1.79-10.93,7.75-18.96,7.06,5.04-6.1,12.7-4.13,12.78-10.51,3.4-1.22,5.7-5.41,9.43-6.11Z"/>
    <path class="cls-2" d="M188.49,582.64c-.04-.69-.43-1.4-.53-2.09,5.13,1.45,10.75.74,16.43,1.8,5.5,1.02,10.24,2,15.87.52-.16,1.57-25.73,5.99-22.76.96-3.23,1.83-6.38.83-9.02-1.19Z"/>
    <path class="cls-9" d="M213.2,438.33c.33-.1.69-.19.99-.35,3.55-1.87,25.86,14.01,28.64,18.02-7.85-2.18-17.81-13.54-25.01-14.39-2.4-.28-4.23-1.19-4.62-3.28Z"/>
    <path class="cls-33" d="M224.27,449.92c.48.78.19,1.02-.78.77-5.67-1.45-20-2.48-17.87-6.08,1.16-.41,1.94-1.84,3.22-2.11,7.05,1.61,9.31,5.35,15.43,7.42Z"/>
    <path class="cls-18" d="M272.84,544.83c-.99.08-2.18.64-3.16.88-.74-1.36.16-2.81.74-4.49l3.52-10.28c1.92-.97-.58,13.68-1.1,13.89Z"/>
    <path class="cls-42" d="M203.36,462.37c-3.3.26-6.43,0-9.4-.77.25-2.66,1.86-4.45,3.28-6.39-.18.84-.26,1.68-.13,3.41,3.39.19,6.49,1.18,9.42,2.29l-3.17,1.46Z"/>
    <path class="cls-4" d="M274.55,510.84c.84,1.05,1.33,2.37,1.87,3.58-.51,4.2.09,8.97-2.51,12.45,0-2.09-1.03-18.82.64-16.02Z"/>
    <path class="cls-57" d="M315.02,444.77c1.35-4.23.14-7.18-1.92-10.56,1.05-.11,2.36-.11,2.97.49,1.36,1.33,2.43,11.05-1.05,10.07Z"/>
    <path class="cls-6" d="M203.36,462.37c-3.04,1.4-6.93,1.44-10.09.37.2-.33.65-.76.69-1.14,2.83-1.26,6.64-.38,9.4.77Z"/>
    <path class="cls-26" d="M313.1,434.21c-2.77.3-4.91-1.77-6.17-4.09,2.76,1.26,4.41,1.2,6.17,4.09Z"/>
    <path class="cls-41" d="M576.21,526.87l-33.98.15c1.73-9.99,10.99-14.99,20.46-13.81,7.11.88,12.9,5.28,13.52,13.66Z"/>
    <circle class="cls-14" cx="773.97" cy="534.96" r="20.1"/>
    <path class="cls-51" d="M202.22,503.81c.61,2.37-.29,5.1-2.71,8.19-3.52-3.2-1.82-7.74.7-12.63-9.73,1.47-3.01,17.03,1.28,22.51,2.62-6.2,7.16-8.38,11.86-11.31,2.43-1.52,10.44-15.2,13.63-10.74,1.83,2.55-1.97,3.74-3.41,5.02l-17.86,15.8c-2.52,2.23-4.06,3.69-4.64,6.77-2.13,1.6-5.06-1.63-6.79-2.12-.97-.28-2.09,1.24-2.6.75-5.87-5.58-8.42-3.47-10-11.66,3.85-.64,5.76,1.49,8.23,3.86,2.76,2.65,6.88,3.61,10.23,5.77l-6.89-11.16c-1.48-2.4-1.48-7.12-.96-10.19,1.56-9.34,13.62-11.02,21.43-12.3-.68,4.08-4.23,5.2-7.75,6.42-2.52.87-6.63,8.09-3.74,7.03Z"/>
    <path class="cls-38" d="M245.53,514.16c2.13,9.02.28,19.06-3.02,27.86-2.67.42-5.02,2.11-6.27,4.93.58,1.97-1.45,4.13-3.33,4.09-.76.04-1.77-.03-1.98-.61-.43-1.16.23-1.78.94-2.6,10.42-12.11,6.04-15.04,6.6-17.17,1.01-3.85,4.29-18.94-1.35-18.61-1-.84-1.72-4.5-.01-4.98,5.46-1.55,6.16,8.64,8.43,7.09Z"/>
    <path class="cls-22" d="M197.07,538.5c1.96,5.39-13.61-1.38-14.97-1.28-8.1-7.17-13.49-3.57-15.41-19.96-.59-5.07-3.44-9.72-.12-14.69,2.84,4.19,3.45,8.76,4.56,13.42,2.92,12.28-2.59,4.37,5.3,14.16,11.34-2.12-4.73,2.9,20.64,8.35Z"/>
    <path class="cls-51" d="M250.79,499.6c1.75,3.86,3.01,7.94,2.68,12.21-.89-1.33-1.36-3.22-2.19-4.87-1.37,1.04-1.53,2.14-2.04,2.97-3.85-3.03-5.81-11.29-6.75-5.18-7.19,2.57-6.27-19.4-25.37-14.43,2.19-6.81,7.75-1.88,11.26-4.3-.97-1.99-3.34-1.65-3.84-3.26,2.86.21,7.14.81,8.75,3.25,2.67,4.07,5.65,7.09,7.71,11.52,2.22-1.6.69-3.25,1.47-5.53,3.85,2.27,3.52,6.74,1.78,9.91.77.82,1.38,1.75,1.81,1.9.51.17,1.51-.24,1.67-.86.47-1.84-1.9-3.66-.7-5.12,1.45.09,2.53,1.37,3.77,1.78Z"/>
    <path class="cls-55" d="M199.51,512c-.49-1.86.66-6.91,2.71-8.19,4.66-2.92,10.72-6.46,16.18-3.48-12.98,7.54-10.29,3.48-18.89,11.68Z"/>
    <path class="cls-23" d="M207.88,523.7c3.34-3.59,6.1-7.68,10.22-10.44.87.03,1.78-.3,3.31.09-2.29,6.38-6.06,7.55-12.65,11.82-.96.62-.83-.44-.89-1.46Z"/>
    <path class="cls-12" d="M228.41,529.09l2.3-4.2c1.65-1.57,1.32-3.39,2.97-4.5,2.75,3.3-6.53,19.97-8.25,16.23.77-3.14,1.85-5.43,2.99-7.52Z"/>
    <path class="cls-34" d="M197.05,489.07c.08.47.2,1.12-.06,1.41-.92.99-7.91,1.01-7.5-.45,4.83-2.01-1.6-5.43,18.18-6.07l-15.89,5.69,5.27-.58Z"/>
    <path class="cls-45" d="M205.45,535.39c-1.41.2-4.73.8-5.89-.79-1.04-1.42,2.41-3.07,3.66-3.53l3.47-1.28c.76,2.12-.22,4.01-1.23,5.59Z"/>
    <path class="cls-25" d="M201.2,479.4c2.4.31,3.83.57,5.31.05,1.75-.01,4.24.39,5.01,2.13-7.38-.13-13.53-.86-19.02,2.72-.7.46-1.41,1.34-1.98.91-.24-.19-1.26-.88-.81-1.74,2.86-3.51,7.47-4.58,11.49-4.06Z"/>
    <path class="cls-10" d="M201.51,545.2c-2.9,4.95-16.22-1.59-17.1-4.94,5.89,2.72,10.94,4.83,17.1,4.94Z"/>
    <path class="cls-5" d="M219.12,568.27c-3.17-.19-6.35-.41-9.53-.19-3.72-1-8.17.11-12.16-1.49-3.07-1.24-6.23-3.12-9.18-3.22-.45-.57-.47-1.99.12-2.75,5.07,2.38,10.6,4.12,16.15,4.28l.74-1.26c9.99,1.34,18.38-.42,25.68-7.71l1.68.38c1.47.61,3.32.19,5.3-1.57,1.08,5.58-4.1,4.39-5.95,5.82-4.28,3.32-7.41,7.74-12.84,7.72Z"/>
    <path class="cls-13" d="M232.62,556.3c-14.31,12.87-15.23,8.97-28.09,8.59-.61-3.01-4.03-1.45-6.33-3.42,12.22,2.09,26.37,1.78,34.72-10.43.92-1.34,2.7-2.65,3.33-4.09,3.12,3.75-3.51,3.42-3.63,9.35Z"/>
    <path class="cls-30" d="M241.19,459.73c-.54,5.73-4.7-3.93-8.22-3.2-.37,1.73,1.18,2.28,1.23,4.36-11.88-5.01-.79-7.67-10.7-10.21.27-.24.53-.5.78-.77,8.42.32,9.85,5.33,16.92,9.81Z"/>
    <path class="cls-30" d="M251.79,474.28c.24-2.29-7.47-7.37-9.17-9.55.55-.79.03-2.32.77-3.11l11.33,12.15c.65.7-.46,1.51-1.28,1.22-.51-.18-1.07-.56-1.65-.72Z"/>
    <path class="cls-16" d="M265.17,529.49c-1.45-8.69-.37-16.54-.13-25.25,3.36,8.38,2.66,16.78.13,25.25Z"/>
    <path class="cls-46" d="M170.37,547.06c-4.99-3.32-9.16-7.4-10.16-13.58,3.41,4.43,7.11,8.59,10.16,13.58Z"/>
  </g>
</svg>